<svg width="266" height="37" viewBox="0 0 266 37" fill="none" xmlns="http://www.w3.org/2000/svg">
<path d="M49.7669 10.4401V14.2626H40.9754V19.2611H47.7087V22.9365H40.9754V28.0379H49.7669V31.8604H35.9768V10.4401H49.7669ZM63.5549 22.0691C63.751 22.4415 63.9372 22.8287 64.1136 23.2305C64.2998 23.6324 64.4762 24.044 64.6429 24.4655C64.8095 24.0342 64.9859 23.6177 65.1721 23.2158C65.3583 22.8042 65.5495 22.4072 65.7455 22.025L71.2439 11.2046C71.3419 11.0184 71.4399 10.8763 71.5379 10.7783C71.6457 10.6705 71.7633 10.5921 71.8907 10.5431C72.0182 10.494 72.1603 10.4646 72.3171 10.4548C72.4837 10.445 72.6748 10.4401 72.8904 10.4401H76.6835V31.8604H72.3024V19.5404C72.3024 18.9426 72.3318 18.2957 72.3906 17.5998L66.7158 28.6113C66.5394 28.9543 66.2992 29.2141 65.9954 29.3905C65.7014 29.5669 65.3632 29.6551 64.981 29.6551H64.3047C63.9225 29.6551 63.5794 29.5669 63.2756 29.3905C62.9816 29.2141 62.7464 28.9543 62.5699 28.6113L56.8657 17.5851C56.9049 17.9281 56.9343 18.2712 56.9539 18.6142C56.9735 18.9475 56.9833 19.2562 56.9833 19.5404V31.8604H52.6023V10.4401H56.3953C56.6109 10.4401 56.7971 10.445 56.9539 10.4548C57.1205 10.4646 57.2676 10.494 57.395 10.5431C57.5224 10.5921 57.6351 10.6705 57.7331 10.7783C57.8409 10.8763 57.9438 11.0184 58.0418 11.2046L63.5549 22.0691ZM85.1943 24.7007V31.8604H80.2252V10.4401H87.7818C89.2911 10.4401 90.5849 10.6215 91.663 10.9841C92.7509 11.3369 93.6428 11.827 94.3387 12.4543C95.0444 13.0815 95.5638 13.8215 95.897 14.6742C96.2303 15.5269 96.3969 16.4482 96.3969 17.4381C96.3969 18.5064 96.2254 19.4865 95.8823 20.3784C95.5393 21.2703 95.015 22.0348 94.3093 22.6719C93.6036 23.3089 92.7068 23.8088 91.6189 24.1714C90.5408 24.5243 89.2617 24.7007 87.7818 24.7007H85.1943ZM85.1943 20.9518H87.7818C89.0755 20.9518 90.0066 20.643 90.5751 20.0256C91.1435 19.4081 91.4278 18.5456 91.4278 17.4381C91.4278 16.948 91.3543 16.5021 91.2072 16.1003C91.0602 15.6984 90.8348 15.3554 90.531 15.0711C90.2369 14.7771 89.8596 14.5517 89.3989 14.3949C88.9481 14.2381 88.409 14.1596 87.7818 14.1596H85.1943V20.9518ZM104.415 31.8604H99.4165V10.4401H104.415V31.8604ZM113.363 23.9362V31.8604H108.394V10.4401H115.362C116.911 10.4401 118.229 10.6019 119.317 10.9253C120.415 11.2389 121.307 11.68 121.993 12.2484C122.688 12.8169 123.193 13.4883 123.507 14.2626C123.82 15.0368 123.977 15.8797 123.977 16.7912C123.977 17.4871 123.884 18.1438 123.698 18.7612C123.512 19.3787 123.232 19.9521 122.86 20.4813C122.497 21.0008 122.046 21.4663 121.507 21.878C120.978 22.2896 120.366 22.6278 119.67 22.8924C120.003 23.059 120.312 23.2648 120.596 23.5099C120.89 23.7549 121.145 24.0538 121.36 24.4066L125.918 31.8604H121.419C120.586 31.8604 119.988 31.5467 119.626 30.9195L116.068 24.7007C115.911 24.4263 115.725 24.2302 115.509 24.1126C115.303 23.995 115.009 23.9362 114.627 23.9362H113.363ZM113.363 20.5107H115.362C116.038 20.5107 116.612 20.4274 117.082 20.2608C117.563 20.0844 117.955 19.8443 118.258 19.5404C118.562 19.2366 118.783 18.8838 118.92 18.4819C119.057 18.0703 119.126 17.6292 119.126 17.1588C119.126 16.2179 118.817 15.4828 118.2 14.9535C117.592 14.4243 116.646 14.1596 115.362 14.1596H113.363V20.5107ZM141.738 10.4401V14.2626H132.946V19.2611H139.68V22.9365H132.946V28.0379H141.738V31.8604H127.948V10.4401H141.738ZM151.053 31.8604V10.793H157.771C159.065 10.793 160.177 10.9204 161.108 11.1752C162.049 11.43 162.819 11.7927 163.417 12.2631C164.024 12.7336 164.47 13.3119 164.754 13.9979C165.048 14.6742 165.195 15.4387 165.195 16.2914C165.195 16.8108 165.112 17.3107 164.946 17.7909C164.789 18.2712 164.544 18.7171 164.21 19.1288C163.887 19.5404 163.475 19.908 162.976 20.2314C162.485 20.5548 161.907 20.8195 161.241 21.0253C162.78 21.3291 163.941 21.8829 164.725 22.6866C165.509 23.4902 165.901 24.5488 165.901 25.8621C165.901 26.754 165.735 27.5675 165.401 28.3026C165.078 29.0376 164.598 29.6698 163.961 30.1991C163.333 30.7283 162.559 31.14 161.638 31.434C160.726 31.7182 159.682 31.8604 158.506 31.8604H151.053ZM153.905 22.2602V29.5963H158.462C159.276 29.5963 159.972 29.5032 160.55 29.317C161.138 29.1308 161.618 28.871 161.991 28.5378C162.373 28.1948 162.652 27.7929 162.829 27.3323C163.005 26.8618 163.093 26.3473 163.093 25.7886C163.093 24.7007 162.706 23.8431 161.932 23.2158C161.167 22.5788 160.006 22.2602 158.447 22.2602H153.905ZM153.905 20.2314H157.668C158.472 20.2314 159.168 20.1432 159.756 19.9668C160.344 19.7904 160.829 19.5453 161.211 19.2317C161.603 18.9181 161.893 18.5407 162.079 18.0997C162.265 17.6488 162.358 17.1588 162.358 16.6295C162.358 15.3946 161.986 14.488 161.241 13.9097C160.496 13.3315 159.339 13.0423 157.771 13.0423H153.905V20.2314ZM178.279 29.5963C179.151 29.5963 179.93 29.4493 180.616 29.1553C181.302 28.8612 181.881 28.4496 182.351 27.9203C182.831 27.3911 183.194 26.7589 183.439 26.0238C183.694 25.2887 183.821 24.4802 183.821 23.5981V10.793H186.659V23.5981C186.659 24.8134 186.463 25.9405 186.071 26.9794C185.688 28.0183 185.135 28.92 184.409 29.6845C183.694 30.4392 182.817 31.0322 181.778 31.4634C180.739 31.8947 179.572 32.1103 178.279 32.1103C176.985 32.1103 175.819 31.8947 174.78 31.4634C173.741 31.0322 172.859 30.4392 172.133 29.6845C171.408 28.92 170.85 28.0183 170.458 26.9794C170.075 25.9405 169.884 24.8134 169.884 23.5981V10.793H172.722V23.5834C172.722 24.4655 172.844 25.274 173.089 26.0091C173.344 26.7442 173.707 27.3764 174.177 27.9056C174.657 28.4349 175.24 28.8514 175.926 29.1553C176.622 29.4493 177.406 29.5963 178.279 29.5963ZM194.699 23.0688V31.8604H191.862V10.793H197.816C199.149 10.793 200.301 10.9302 201.271 11.2046C202.241 11.4693 203.04 11.8564 203.667 12.366C204.305 12.8757 204.775 13.4932 205.079 14.2185C205.383 14.9339 205.535 15.7376 205.535 16.6295C205.535 17.3744 205.417 18.0703 205.182 18.7171C204.946 19.364 204.603 19.9472 204.153 20.4666C203.712 20.9763 203.168 21.4124 202.521 21.7751C201.884 22.1377 201.158 22.4121 200.345 22.5984C200.698 22.8042 201.011 23.1031 201.286 23.4952L207.431 31.8604H204.902C204.383 31.8604 204.001 31.6594 203.756 31.2576L198.287 23.7304C198.12 23.4951 197.939 23.3285 197.743 23.2305C197.547 23.1227 197.253 23.0688 196.861 23.0688H194.699ZM194.699 20.9959H197.684C198.517 20.9959 199.247 20.8979 199.874 20.7018C200.512 20.496 201.041 20.2118 201.462 19.8492C201.893 19.4767 202.217 19.0357 202.433 18.526C202.648 18.0164 202.756 17.4528 202.756 16.8353C202.756 15.5808 202.339 14.635 201.506 13.9979C200.683 13.3609 199.453 13.0423 197.816 13.0423H194.699V20.9959ZM219.196 29.7874C219.764 29.7874 220.284 29.7629 220.754 29.7139C221.234 29.6551 221.685 29.5718 222.107 29.464C222.528 29.3562 222.925 29.2288 223.298 29.0818C223.67 28.9249 224.042 28.7485 224.415 28.5525V23.9068H221.151C220.965 23.9068 220.813 23.8529 220.695 23.7451C220.588 23.6373 220.534 23.505 220.534 23.3481V21.731H227.002V29.8168C226.473 30.1991 225.919 30.5323 225.341 30.8165C224.773 31.1008 224.16 31.3409 223.503 31.5369C222.856 31.7231 222.161 31.8604 221.416 31.9486C220.671 32.0466 219.862 32.0956 218.99 32.0956C217.461 32.0956 216.059 31.8358 214.785 31.3164C213.511 30.7871 212.413 30.0521 211.492 29.1112C210.571 28.1605 209.85 27.0235 209.331 25.7004C208.821 24.3772 208.567 22.9218 208.567 21.334C208.567 19.7266 208.816 18.2614 209.316 16.9382C209.826 15.6151 210.546 14.4831 211.477 13.5422C212.418 12.5915 213.55 11.8564 214.874 11.3369C216.206 10.8175 217.696 10.5578 219.343 10.5578C220.176 10.5578 220.95 10.6215 221.666 10.7489C222.381 10.8665 223.043 11.0429 223.65 11.2781C224.268 11.5036 224.836 11.7829 225.356 12.1161C225.875 12.4396 226.36 12.8071 226.811 13.2187L226.003 14.5125C225.836 14.7771 225.62 14.9094 225.356 14.9094C225.199 14.9094 225.027 14.8555 224.841 14.7477C224.596 14.6105 224.322 14.4439 224.018 14.2479C223.714 14.0518 223.342 13.8656 222.901 13.6892C222.469 13.503 221.955 13.3462 221.357 13.2187C220.769 13.0913 220.068 13.0276 219.255 13.0276C218.069 13.0276 216.995 13.2236 216.035 13.6157C215.074 13.9979 214.256 14.5517 213.58 15.277C212.904 15.9924 212.384 16.8647 212.021 17.8938C211.659 18.9132 211.477 20.0599 211.477 21.334C211.477 22.667 211.664 23.8578 212.036 24.9065C212.418 25.9454 212.953 26.8275 213.639 27.5528C214.325 28.2781 215.138 28.8318 216.079 29.2141C217.02 29.5963 218.059 29.7874 219.196 29.7874ZM244.376 10.793V13.1158H234.261V20.1138H242.45V22.3484H234.261V29.5375H244.376V31.8604H231.394V10.793H244.376ZM251.611 23.0688V31.8604H248.773V10.793H254.727C256.06 10.793 257.212 10.9302 258.182 11.2046C259.153 11.4693 259.951 11.8564 260.579 12.366C261.216 12.8757 261.686 13.4932 261.99 14.2185C262.294 14.9339 262.446 15.7376 262.446 16.6295C262.446 17.3744 262.328 18.0703 262.093 18.7171C261.858 19.364 261.515 19.9472 261.064 20.4666C260.623 20.9763 260.079 21.4124 259.432 21.7751C258.795 22.1377 258.07 22.4121 257.256 22.5984C257.609 22.8042 257.923 23.1031 258.197 23.4952L264.342 31.8604H261.814C261.294 31.8604 260.912 31.6594 260.667 31.2576L255.198 23.7304C255.031 23.4951 254.85 23.3285 254.654 23.2305C254.458 23.1227 254.164 23.0688 253.772 23.0688H251.611ZM251.611 20.9959H254.595C255.428 20.9959 256.158 20.8979 256.786 20.7018C257.423 20.496 257.952 20.2118 258.373 19.8492C258.805 19.4767 259.128 19.0357 259.344 18.526C259.559 18.0164 259.667 17.4528 259.667 16.8353C259.667 15.5808 259.251 14.635 258.418 13.9979C257.594 13.3609 256.364 13.0423 254.727 13.0423H251.611V20.9959Z" fill="#F59A1B"/>
<g clip-path="url(#clip0_1_12)">
<path d="M26.5455 25.6584V27.8717C26.4754 28.156 26.4277 28.448 26.3329 28.7238C25.7405 30.4433 24.2444 31.4972 22.404 31.501C17.6091 31.501 12.8142 31.501 8.01933 31.501C7.90839 31.501 7.79823 31.501 7.68729 31.4925C5.8715 31.4009 4.26139 30.0219 3.97327 28.23C3.85463 27.4865 3.89623 26.7169 3.88082 25.9589C3.86849 25.3425 4.18898 25.0344 4.80143 25.0344C8.49928 25.0344 12.1951 25.0344 15.8888 25.0344C16.1555 25.031 16.4153 25.1188 16.6253 25.2832C17.4013 25.8713 18.1797 26.4558 18.9603 27.0366C19.0589 27.1137 19.1591 27.1822 19.2608 27.2562C20.1513 26.5852 21.0227 25.9311 21.8924 25.274C22.1026 25.1097 22.3629 25.0227 22.6297 25.0275C23.5965 25.0344 24.5633 25.0444 25.5286 25.0275C26.0255 25.0136 26.3684 25.1854 26.5455 25.6584Z" fill="#F43127"/>
<path d="M30.0124 5.20765C29.7812 6.0882 29.5501 6.96721 29.3267 7.8493C28.4962 11.162 27.6694 14.4746 26.8461 17.7873C26.7983 17.9814 26.7228 18.0438 26.5202 18.0438C18.9966 18.0382 11.4725 18.0364 3.94792 18.0384C3.88167 18.0384 3.81465 18.0322 3.71681 18.0269C3.56273 17.4267 3.40866 16.8251 3.25997 16.2218C2.35862 12.6206 1.45984 9.01875 0.563625 5.41643C0.50786 5.23348 0.488493 5.04137 0.506617 4.85097C0.611389 4.20384 1.35789 3.92651 1.89331 4.33712C2.74073 4.9958 3.57814 5.67528 4.41863 6.34705L8.01864 9.22829C8.53018 9.63737 8.60567 9.88697 8.39844 10.501C8.25459 10.9086 8.26741 11.3551 8.43442 11.7537C8.60143 12.1524 8.91069 12.4747 9.3021 12.658C9.68419 12.8375 10.1186 12.8716 10.524 12.7539C10.9294 12.6362 11.2781 12.3748 11.5046 12.0186C11.7352 11.6589 11.8248 11.2268 11.7563 10.8051C11.6878 10.3834 11.4659 10.0018 11.1333 9.73366C10.6272 9.31303 10.5571 8.98793 10.849 8.40244C12.0303 6.03376 13.2131 3.66432 14.3974 1.2941C14.5777 0.930479 14.8234 0.668548 15.2448 0.667778C15.6662 0.667007 15.9174 0.925087 16.0984 1.28948C17.2797 3.66072 18.4622 6.02991 19.6461 8.39705C19.9396 8.98485 19.8687 9.32151 19.3695 9.73058C19.0356 9.99793 18.8126 10.3795 18.7436 10.8017C18.6746 11.2238 18.7644 11.6566 18.9959 12.0163C19.2212 12.3733 19.5689 12.6359 19.9739 12.755C20.3788 12.8741 20.8134 12.8416 21.1961 12.6634C21.5837 12.484 21.8916 12.1681 22.0612 11.7761C22.2307 11.384 22.2499 10.9433 22.1151 10.5379C21.8987 9.86771 21.9611 9.65586 22.5003 9.21982C24.4802 7.63437 26.4604 6.04994 28.4408 4.46654C29.101 3.93883 29.6264 4.05439 30.0124 4.80551V5.20765Z" fill="#F43127"/>
<path d="M3.95708 19.7941H26.5455V20.0884C26.5455 20.7994 26.5455 21.5105 26.5455 22.2215C26.5455 22.9095 26.2058 23.2477 25.5171 23.2477H5.02483C4.28141 23.2477 3.96093 22.9226 3.96016 22.1692C3.96016 21.4774 3.96016 20.7858 3.96016 20.0945L3.95708 19.7941Z" fill="#F43127"/>
</g>
<defs>
<clipPath id="clip0_1_12">
<rect width="29.5142" height="30.8316" fill="white" transform="translate(0.498047 0.670898)"/>
</clipPath>
</defs>
</svg>
