<svg width="28" height="15" viewBox="0 0 28 15" fill="none" xmlns="http://www.w3.org/2000/svg">
<g clip-path="url(#clip0_1_16)">
<path d="M0.498047 8.82328H2.5529L3.69475 3.1436H1.63963L0.498047 8.82328ZM1.75285 2.46618H3.8163L4.15542 0.766843H2.09277L1.75285 2.46618ZM3.35214 10.4215H5.40726L6.66287 4.28518H8.20407L8.43131 3.1436H6.91969L6.97697 2.88677C7.06249 2.40271 7.23379 1.85921 8.00426 1.85921C8.46143 1.85921 8.88929 1.88772 9.31715 2.08753L9.54574 0.888935C9.0689 0.720689 8.56718 0.633781 8.06154 0.631844C6.40605 0.631844 5.26473 1.60239 4.83633 3.1436H4.12288L3.89456 4.28518H4.60802L3.35214 10.4215Z" fill="#F59A1B"/>
<path d="M9.85957 8.93756C12.2855 8.93756 13.9695 6.73964 13.9695 4.94162C13.9695 3.60022 12.7422 3.0293 11.5436 3.0293C8.88849 3.0293 7.4336 5.39959 7.4336 7.02524C7.4336 8.36664 8.68948 8.93756 9.85957 8.93756ZM16.3675 8.93756C18.7935 8.93756 20.4775 6.73964 20.4775 4.94162C20.4775 3.60022 19.2216 3.0293 18.0228 3.0293C15.3685 3.0293 13.9131 5.39825 13.9131 7.02524C13.9131 8.36664 15.1974 8.93756 16.3675 8.93756M23.8167 8.82327H25.8431L27.498 0.747204H25.4432L24.9578 3.14466L24.1015 3.05915C22.1037 3.05915 20.2772 5.62764 20.2772 7.45445C20.2772 8.19641 20.7612 8.93864 21.59 8.93864C22.7601 8.93864 23.5879 8.36771 23.9297 7.79679H24.0437L23.8167 8.82327ZM17.4801 13.076C15.885 14.3976 13.8364 15.0429 11.7719 14.8741C9.06033 14.7028 7.1195 12.6191 6.77716 10.4215H6.89118C7.51912 11.793 9.03182 13.076 10.8871 13.2756C12.7696 13.5039 15.0256 12.6479 16.2527 11.4776L14.8828 10.4215H19.0213L18.1069 14.8171L17.5075 13.1045L17.4801 13.076Z" fill="#F59A1B"/>
</g>
<defs>
<clipPath id="clip0_1_16">
<rect width="27" height="14.2686" fill="white" transform="translate(0.498047 0.631836)"/>
</clipPath>
</defs>
</svg>
